
<svg xmlns="http://www.w3.org/2000/svg" width="250" height="249" viewBox="0 0 250 249">
  <metadata><?xpacket begin="﻿" id="W5M0MpCehiHzreSzNTczkc9d"?>
<x:xmpmeta xmlns:x="adobe:ns:meta/" x:xmptk="Adobe XMP Core 5.6-c138 79.159824, 2016/09/14-01:09:01        ">
   <rdf:RDF xmlns:rdf="http://www.w3.org/1999/02/22-rdf-syntax-ns#">
      <rdf:Description rdf:about=""/>
   </rdf:RDF>
</x:xmpmeta>
                                                                                                    
                                                                                                    
                                                                                                    
                                                                                                    
                                                                                                    
                                                                                                    
                                                                                                    
                                                                                                    
                                                                                                    
                                                                                                    
                                                                                                    
                                                                                                    
                                                                                                    
                                                                                                    
                                                                                                    
                                                                                                    
                                                                                                    
                                                                                                    
                                                                                                    
                                                                                                    
                           
<?xpacket end="w"?></metadata>
<defs>
    <style>
      .cls-1, .cls-2 {
        fill: #09c;
      }

      .cls-1 {
        fill-rule: evenodd;
      }
    </style>
  </defs>
  <path class="cls-1" d="M107.453,31.344c59.345,0,107.453,47.773,107.453,106.7S166.8,244.75,107.453,244.75,0,196.977,0,138.047,48.108,31.344,107.453,31.344Zm0,14.187c51.423,0,93.109,41.407,93.109,92.485S158.876,230.5,107.453,230.5s-93.109-41.407-93.109-92.484S56.03,45.531,107.453,45.531Z"/>
  <path class="cls-1" d="M157.185,231.576l6.051-3.818,9.966,15.609a2.838,2.838,0,0,1-.887,3.929l-1.21.763a2.874,2.874,0,0,1-3.954-.874Z"/>
  <path id="Left_Stand" data-name="Left Stand" class="cls-1" d="M58.647,230.569l-6.492-3.007-7.871,16.763a2.837,2.837,0,0,0,1.386,3.782l1.3,0.6a2.874,2.874,0,0,0,3.808-1.376Z"/>
  <circle class="cls-2" cx="106.75" cy="137.313" r="10.75"/>
  <circle class="cls-2" cx="107.125" cy="55.125" r="5.344"/>
  <circle id="Ellipse_4_copy_2" data-name="Ellipse 4 copy 2" class="cls-2" cx="190.203" cy="137.672" r="5.391"/>
  <circle id="Ellipse_4_copy_3" data-name="Ellipse 4 copy 3" class="cls-2" cx="24.016" cy="137.672" r="5.359"/>
  <circle id="Ellipse_4_copy" data-name="Ellipse 4 copy" class="cls-2" cx="107.125" cy="220.203" r="5.344"/>
  <circle id="Element_2" data-name="Element 2" class="cls-2" cx="244.641" cy="137.672" r="5.359"/>
  <path id="Element_1" data-name="Element 1" class="cls-2" d="M216.344,132.344h18.468a3,3,0,0,1,3,3V140a3,3,0,0,1-3,3H216.344a0,0,0,0,1,0,0V132.344A0,0,0,0,1,216.344,132.344Z"/>
  <path id="Element_2-2" data-name="Element 2" class="cls-1" d="M80.219,15.656H137V36.969H80.219V15.656ZM108.314,0c15.638,0,29.314,5.729,29.314,12.8s-13.676,12.8-29.314,12.8S80,19.864,80,12.8,92.677,0,108.314,0Z"/>
  <path id="Element_1-2" data-name="Element 1" class="cls-1" d="M108.875,0c15.826,0,28.656,4.771,28.656,10.656S124.7,21.313,108.875,21.313,80.219,16.542,80.219,10.656,93.049,0,108.875,0Z"/>
</svg>
